<svg width="71" height="45" viewBox="0 0 71 45" fill="none" xmlns="http://www.w3.org/2000/svg">
<path d="M33.9913 18.8368L33.8295 18.7372C32.8307 20.2672 31.0933 21.1496 29.1942 21.1496C26.3912 21.1817 24.492 19.2282 24.3654 14.6667H34.0581V13.9835C34.0581 9.97704 31.1601 7.14119 27.3618 7.14119C22.723 7.14119 19.3432 11.475 19.3432 16.6201C19.3432 21.9965 22.8848 24.9284 26.5565 24.9284C30.098 24.9284 32.996 22.484 33.9913 18.8368ZM26.8132 8.18373C28.1989 8.18373 28.8425 9.74576 28.9058 13.5601H24.3654C24.4604 9.78134 25.4592 8.18373 26.8132 8.18373Z" fill="#0171EA"/>
<path d="M7.23791 44.8399C9.52392 44.8399 11.5848 43.0145 12.6786 41.6802L12.7419 41.7123C12.6786 42.1677 12.647 42.8188 12.647 43.47V45H12.7771C14.5813 44.2172 16.8989 43.5661 19.2166 43.5661V43.4664C18.1862 42.9469 17.7043 41.7728 17.7043 40.2748V16.0935H17.641C16.1604 17.6591 13.3574 18.6661 11.0081 18.7337V18.8298C12.1018 19.3848 12.6505 20.6551 12.6505 21.9574V27.6398C12.0069 27.4441 11.2965 27.2484 10.3961 27.2484C5.2438 27.2484 1.82885 32.0376 1.82885 37.382C1.82533 41.6162 4.11486 44.8399 7.23791 44.8399ZM10.4243 41.4561C8.52511 41.4561 7.20274 39.6592 7.20274 35.457C7.17109 31.3829 8.75019 28.3051 10.776 28.3051C11.8697 28.3051 12.6751 29.0879 12.6751 30.2586V40.7053C11.9365 41.1607 11.2296 41.4561 10.4243 41.4561Z" fill="#0171EA"/>
<path d="M19.7125 44.3844H27.7627V44.2848C26.8941 43.7653 26.4087 42.6231 26.4087 41.2212V32.2226H26.3138C24.6362 33.9946 21.6749 33.9768 19.6808 33.6815V33.7776C20.8731 34.265 21.2248 36.2825 21.2248 37.5207V41.2248C21.2248 42.6587 20.6445 43.7333 19.7125 44.2883V44.3844Z" fill="#0171EA"/>
<path d="M43.2689 38.7483L43.1071 38.6487C42.1083 40.1787 40.3709 41.0611 38.4718 41.0611C35.6688 41.0931 33.7697 39.1397 33.643 34.5781H43.3357V33.895C43.3357 29.8885 40.4378 27.0527 36.6395 27.0527C32.0006 27.0527 28.6208 31.3865 28.6208 36.5316C28.6208 41.9079 32.1624 44.8399 35.8341 44.8399C39.3757 44.8399 42.2736 42.3954 43.2689 38.7483ZM36.0908 28.0952C37.4765 28.0952 38.1201 29.6572 38.1834 33.4716H33.643C33.738 29.6928 34.7368 28.0952 36.0908 28.0952Z" fill="#0171EA"/>
<path d="M44.1481 44.2883V44.388H52.0999V44.2883C51.2313 43.6052 50.7459 42.5626 50.7459 41.2604V31.3544C51.7447 30.7994 53.0319 30.2799 53.8373 30.2799C54.7693 30.3119 55.1913 30.9951 55.1913 32.365V41.2604C55.1913 42.6623 54.7728 43.6052 53.8725 44.2883V44.388H61.5359V44.2883C60.6989 43.6052 60.2487 42.5626 60.2487 41.2604V31.39C61.2475 30.835 62.5664 30.2799 63.3717 30.2799C64.3037 30.2799 64.6906 31.0307 64.6906 32.365V41.2604C64.6906 42.6623 64.2404 43.6052 63.3366 44.2883V44.388H71V44.2883C70.163 43.7689 69.7444 42.6907 69.7444 41.2248V30.6037C69.7444 28.4866 68.6155 27.0847 66.5898 27.0526C64.367 27.0847 61.6625 29.0416 60.2768 30.5396H60.2452C60.2452 28.4866 59.1198 27.0526 57.0588 27.0526C54.8361 27.0526 52.1632 29.0416 50.7459 30.5396L50.7143 30.5076C50.7459 30.0201 50.7776 29.369 50.7776 28.7499V26.9245H50.6826C49.202 28.4546 46.4975 29.4971 44.1446 29.5647V29.6608C45.3052 30.1482 45.6886 31.2228 45.6886 32.6923V41.2283C45.6921 42.5591 45.147 43.6336 44.1481 44.2883Z" fill="#0171EA"/>
<path d="M0 0.878864V0.974934C1.2872 1.49443 1.96597 2.73266 1.96597 4.29825V21.2706C1.96597 22.9003 1.29072 24.1385 0 24.7256V24.8217H9.36913V24.7292C8.08193 24.1421 7.43833 22.9038 7.43833 21.2742V16.2892C8.14524 16.4209 8.91897 16.4849 9.69269 16.517C14.2331 16.4849 19.6738 13.6491 19.6738 7.88487C19.6738 3.19167 15.457 0 9.08075 0C6.02101 0 3.09139 0.359374 0 0.878864ZM7.43833 3.7503C7.43833 2.12066 8.08193 1.30584 9.62939 1.30584C12.2038 1.30584 13.6879 3.97446 13.6879 8.53601C13.6879 13.0335 11.7888 15.2076 8.47231 15.2076C8.14876 15.2076 7.79706 15.2076 7.44185 15.1435V3.7503H7.43833Z" fill="#0171EA"/>
<path d="M41.5667 9.31883V7.3654H41.4718C39.9911 8.89541 37.2866 9.93795 34.9338 10.0056V10.1016C36.0592 10.5891 36.4812 11.6637 36.4812 13.1332V21.6692C36.4812 23.0035 35.9009 24.1136 34.9338 24.7328V24.8288H43.0474V24.7292C42.1154 24.1101 41.5351 23.0035 41.5351 21.6656" fill="#0171EA"/>
<path d="M42.4389 13.03C42.9208 12.4749 43.4378 12.0515 43.9864 12.0515C44.9852 12.0515 45.5339 13.9409 47.0778 13.9409C48.2067 13.9409 49.202 12.8663 49.202 11.2367C49.202 9.67464 48.1716 8.50044 46.8175 8.50044C45.0133 8.504 42.6113 10.4005 42.4389 13.03Z" fill="#0171EA"/>
<path d="M23.4017 32.0234C25.0488 32.0234 26.384 30.6725 26.384 29.0061C26.384 27.3396 25.0488 25.9888 23.4017 25.9888C21.7546 25.9888 20.4193 27.3396 20.4193 29.0061C20.4193 30.6725 21.7546 32.0234 23.4017 32.0234Z" fill="#0171EA"/>
</svg>
