<svg width="66" height="42" viewBox="0 0 66 42" fill="none" xmlns="http://www.w3.org/2000/svg">
<path d="M31.6331 17.8378L31.4865 17.7485C30.5817 19.1194 29.0078 19.91 27.2873 19.91C24.748 19.9387 23.0275 18.1885 22.9128 14.1013H31.6936V13.4892C31.6936 9.89939 29.0683 7.35847 25.6274 7.35847C21.425 7.35847 18.3632 11.2416 18.3632 15.8516C18.3632 20.6688 21.5715 23.2958 24.8978 23.2958C28.1061 23.2958 30.7314 21.1056 31.6331 17.8378ZM25.1303 8.29258C26.3856 8.29258 26.9687 9.69216 27.026 13.1098H22.9128C22.9989 9.72404 23.9037 8.29258 25.1303 8.29258Z" fill="white"/>
<path d="M7.39678 41.1365C9.46771 41.1365 11.3347 39.501 12.3256 38.3055L12.3829 38.3341C12.3256 38.7422 12.2969 39.3256 12.2969 39.9091V41.28H12.4148C14.0493 40.5786 16.1489 39.9952 18.2485 39.9952V39.9059C17.315 39.4404 16.8785 38.3883 16.8785 37.0462V15.3798H16.8211C15.4798 16.7825 12.9405 17.6848 10.8122 17.7454V17.8314C11.8031 18.3288 12.3001 19.4669 12.3001 20.6338V25.7252C11.7171 25.5498 11.0735 25.3745 10.2579 25.3745C5.59028 25.3745 2.49663 29.6657 2.49663 34.4542C2.49344 38.2481 4.56756 41.1365 7.39678 41.1365ZM10.2833 38.1046C8.56287 38.1046 7.36492 36.4946 7.36492 32.7295C7.33624 29.0791 8.76678 26.3214 10.6019 26.3214C11.5928 26.3214 12.3224 27.0227 12.3224 28.0716V37.4319C11.6533 37.84 11.0129 38.1046 10.2833 38.1046Z" fill="white"/>
<path d="M18.6977 40.7284H25.9905V40.6391C25.2036 40.1737 24.7639 39.1503 24.7639 37.8942V29.8314H24.6779C23.1581 31.4191 20.4755 31.4032 18.669 31.1386V31.2247C19.7491 31.6614 20.0677 33.4691 20.0677 34.5785V37.8974C20.0677 39.1822 19.542 40.145 18.6977 40.6423V40.7284Z" fill="white"/>
<path d="M40.0378 35.6784L39.8913 35.5892C38.9864 36.9601 37.4125 37.7507 35.692 37.7507C33.1528 37.7794 31.4323 36.0291 31.3176 31.942H40.0984V31.3299C40.0984 27.7401 37.473 25.1991 34.0321 25.1991C29.8297 25.1991 26.7679 29.0822 26.7679 33.6923C26.7679 38.5095 29.9763 41.1365 33.3025 41.1365C36.5109 41.1365 39.1362 38.9463 40.0378 35.6784ZM33.5351 26.1333C34.7904 26.1333 35.3734 27.5328 35.4308 30.9505H31.3176C31.4036 27.5647 32.3085 26.1333 33.5351 26.1333Z" fill="white"/>
<path d="M40.8343 40.6423V40.7316H48.038V40.6423C47.251 40.0302 46.8114 39.0961 46.8114 37.9292V29.0535C47.7162 28.5562 48.8823 28.0907 49.6119 28.0907C50.4562 28.1194 50.8385 28.7315 50.8385 29.959V37.9292C50.8385 39.1854 50.4594 40.0302 49.6438 40.6423V40.7316H56.5862V40.6423C55.8279 40.0302 55.4201 39.0961 55.4201 37.9292V29.0854C56.3249 28.5881 57.5197 28.0907 58.2493 28.0907C59.0936 28.0907 59.4441 28.7634 59.4441 29.959V37.9292C59.4441 39.1854 59.0362 40.0302 58.2174 40.6423V40.7316H65.1598V40.6423C64.4016 40.1769 64.0224 39.2109 64.0224 37.8974V28.3809C64.0224 26.4839 62.9997 25.2278 61.1645 25.1991C59.1509 25.2278 56.7009 26.9813 55.4456 28.3235H55.4169C55.4169 26.4839 54.3973 25.1991 52.5303 25.1991C50.5167 25.1991 48.0953 26.9813 46.8114 28.3235L46.7827 28.2948C46.8114 27.858 46.84 27.2746 46.84 26.7199V25.0844H46.754C45.4127 26.4552 42.9626 27.3894 40.8311 27.4499V27.536C41.8825 27.9728 42.2298 28.9356 42.2298 30.2523V37.9005C42.233 39.0929 41.7392 40.0557 40.8343 40.6423Z" fill="white"/>
<path d="M0.839844 1.74742V1.8335C2.00594 2.29897 2.62085 3.40843 2.62085 4.81119V20.0185C2.62085 21.4786 2.00912 22.5881 0.839844 23.1141V23.2002H9.32749V23.1173C8.16139 22.5913 7.57834 21.4818 7.57834 20.0217V15.5551C8.21874 15.6731 8.91967 15.7305 9.6206 15.7592C13.7338 15.7305 18.6626 13.1895 18.6626 8.02481C18.6626 3.81969 14.8425 0.959961 9.06623 0.959961C6.29436 0.959961 3.64038 1.28196 0.839844 1.74742ZM7.57834 4.32023C7.57834 2.86007 8.16139 2.13 9.56326 2.13C11.8954 2.13 13.24 4.52108 13.24 8.60823C13.24 12.638 11.5195 14.5859 8.51504 14.5859C8.22193 14.5859 7.90332 14.5859 7.58153 14.5285V4.32023H7.57834Z" fill="white"/>
<path d="M38.4958 9.30963V7.55936H38.4098C37.0684 8.93025 34.6184 9.86436 32.4869 9.92494V10.011C33.5064 10.4478 33.8888 11.4106 33.8888 12.7273V20.3756C33.8888 21.5711 33.3631 22.5658 32.4869 23.1205V23.2066H39.8371V23.1173C38.9928 22.5626 38.4671 21.5711 38.4671 20.3724" fill="white"/>
<path d="M39.2859 12.6348C39.7224 12.1375 40.1908 11.7581 40.6878 11.7581C41.5926 11.7581 42.0897 13.451 43.4883 13.451C44.5111 13.451 45.4127 12.4882 45.4127 11.028C45.4127 9.62844 44.4792 8.57636 43.2526 8.57636C41.6181 8.57955 39.442 10.2788 39.2859 12.6348Z" fill="white"/>
<path d="M22.0398 29.6529C23.5319 29.6529 24.7416 28.4425 24.7416 26.9494C24.7416 25.4563 23.5319 24.2459 22.0398 24.2459C20.5476 24.2459 19.338 25.4563 19.338 26.9494C19.338 28.4425 20.5476 29.6529 22.0398 29.6529Z" fill="white"/>
</svg>
